<?xml version="1.0" encoding="UTF-8" standalone="no"?>
<!-- Created with Inkscape (http://www.inkscape.org/) -->

<svg
   version="1.1"
   id="svg1"
   width="141.78737"
   height="126.32917"
   viewBox="0 0 141.78737 126.32917"
   xml:space="preserve"
   xmlns="http://www.w3.org/2000/svg"
   xmlns:svg="http://www.w3.org/2000/svg"><defs
     id="defs1" /><g
     id="layer1"
     style="display:inline;fill:#ffffff;fill-opacity:1"
     transform="matrix(-1,0,0,1,264.99998,0)"><path
       id="path11"
       style="display:inline;fill:#ffffff;fill-opacity:1;stroke:none;stroke-width:0.5;stroke-linecap:round;stroke-linejoin:round;stroke-miterlimit:0"
       d="m 199.60333,0.00215396 c -1.72149,-0.0685 -5.03944,1.50976004 -6.00391,2.88672004 -4.02973,5.75328 -2.52344,12.87696 -2.52344,12.87696 0,0 -1.26504,-3.5372 -1.5625,-5.38086 -0.40384,-2.50302 0.97502,-7.10716 -0.28515,-7.59961 -1.7122,-0.6691 -5.12026,0.58775 -6.61524,2.6582 -2.06549,2.86058 -0.63672,10.56445 -0.63672,10.56445 0,0 -4.88495,-9.25784 -8.45117,-7.83203 -2.72837,1.09083 -0.55273,8.79883 -0.55273,8.79883 0,0 -1.40818,-0.93318 -2.00195,-1.13477 -2.49485,-0.84702 -3.52526,-0.2977 -4.51368,0.87305 -1.18857,1.40782 0.2158,5.73406 -0.125,5.52539 -0.34079,-0.20867 -4.21134,-0.22877 -5.32617,1.21094 -1.01094,1.30555 0.14453,4.95117 0.14453,4.95117 0,0 -3.1049,-0.34914 -3.86914,0.7168 -2.01096,2.80484 0.85742,5.79883 0.85742,5.79883 0,0 -3.22572,-0.1237 -4.08593,1.89453 -0.85618,2.00874 2.30468,4.25976 2.30468,4.25976 0,0 -1.14134,0.0265 -1.65234,0.24805 -2.52018,1.09247 -2.94706,3.13518 -2.03516,4.38867 0.66304,0.9114 3.27344,1.39063 3.27344,1.39063 0,0 -1.32043,0.46204 -1.7539,0.9707 -0.77814,0.9131 -1.39498,2.19752 -1.22266,3.38477 0.15559,1.072 1.92773,2.61718 1.92773,2.61718 0,0 -0.9748,2.09105 -0.62304,3.07617 0.38359,1.07431 2.65039,2.16602 2.65039,2.16602 0,0 -0.47096,0.61813 -0.47266,0.98047 -0.007,1.58809 0.6751,3.47899 2.0293,4.30859 0.64024,0.39223 3.07674,-0.70663 2.25195,-0.0703 -0.82479,0.63632 -0.74219,2.33204 0.14844,3.61133 0.92231,1.32479 3.45687,1.65136 4.91211,0.57031 1.02,-0.75772 0.8166,-0.16867 1.55273,0.68555 0.82474,0.95704 2.18628,-0.051 1.64258,0.59961 -0.19801,0.23696 -0.59868,0.50134 -0.86328,0.80664 -4.14411,1.86464 -9.73883,4.30147 -11.92383,4.80078 -3.55116,0.81151 -5.08245,1.69521 -13.72266,3.125 -8.6402,1.42979 -12.33148,0.68097 -13.33984,1.92383 -0.20824,0.25667 0.22266,0.9668 0.22266,0.9668 0,0 -2.24802,0.57711 -2.91016,1.43164 -0.72634,0.93738 -1.137,2.3154 -0.72461,3.48242 0.41239,1.16702 0.68164,1.44531 0.68164,1.44531 0,0 -1.57118,2.07739 -2.14453,3.23828 -0.47448,0.9607 -1.04073,1.66511 -1.04883,3.03907 -0.007,1.27831 0.34581,2.01442 1.27539,2.74023 0.92959,0.72581 3.11406,0.11045 2.9668,0.50781 -0.16474,0.44452 -0.86411,1.66183 -1.10352,4.597656 -0.22895,2.80769 0.94202,4.31306 2.08594,4.86719 1.32149,0.64013 1.87011,0.63265 2.80078,0.46093 0.79978,-0.14757 2.10742,-1.22851 2.10743,-1.22851 0,0 1.70995,2.89847 3.13281,2.90039 3.06533,0.004 9.72461,-7.81836 9.72461,-7.81836 l 6.77539,-7.509766 c 0.009,0.0488 0.004,0.1031 0.0156,0.15039 0.19892,0.81234 2.20313,1.19922 2.20313,1.19922 0,0 -2.25336,0.0979 -2.81446,0.90821 -0.46568,0.6725 -0.39973,1.56882 0.11719,2.45117 0.34391,0.58703 1.43363,0.56412 2.14844,0.48828 -0.14861,0.0221 0.007,0.008 -1.125,0.14453 -1.78704,0.21511 -1.31285,2.138096 -0.64844,2.624996 0.51397,0.37666 1.85289,0.0973 2.55469,-0.0684 -0.20499,0.0525 -0.40115,0.0972 -0.73242,0.23242 -0.915,0.37355 -1.41415,3.0068 1.00781,4.0625 0.90581,0.39483 3.56874,-0.78894 2.95313,-0.24609 -0.61562,0.54286 -0.91746,2.05319 1.28515,3.30273 2.44416,1.38657 3.22188,0.15021 3.78906,-0.0996 0.11783,-0.0519 0.0713,1.80642 0.58399,2.48633 0.78379,1.03932 2.06202,1.96995 3.41015,1.90235 1.305,-0.0655 3.73633,-1.18555 3.73633,-1.18555 0,0 -0.87312,0.91474 -0.9414,1.50195 -0.14441,1.24183 0.28537,2.70822 1.20898,3.55078 1.15262,1.05153 3.0152,1.38235 4.54883,1.09571 1.1799,-0.22053 2.87994,-2.75393 2.96094,-2.05078 0.081,0.70316 0.88323,2.70737 1.86132,3.95703 0.9781,1.24965 3.11984,2.18034 4.85938,1.98633 2.86519,-0.31955 2.30469,-3.22852 2.30469,-3.22852 0,0 2.24431,2.00856 3.44531,2.91406 2.91135,2.19503 4.84145,2.62127 5.9375,2.49219 1.18462,-0.13951 0.21289,-3.86914 0.21289,-3.86914 0,0 4.20117,2.51999 6.36328,3.66797 2.04542,1.08602 4.85985,1.4617 5.53125,0.52539 0.4942,-0.68919 -1.09765,-2.29492 -1.09765,-2.29492 0,0 -0.12019,-0.70393 1.66992,0.31445 1.87326,1.06568 6.37228,3.11495 9.82812,3.58789 3.76132,0.51475 9.98903,-3.11968 7.34375,-3.99609 -0.85148,-0.28211 -6.81446,-0.68927 -9.4707,-2.60352 -2.73203,-1.96886 -4.33209,-5.28425 -5.62305,-8.39453 -1.239,-2.98511 -0.84881,-6.44964 -1.89453,-9.50781 -0.52504,-1.53545 -1.38615,-2.652366 -2.17187,-4.357416 -0.78572,-1.70507 -1.86604,-4.49147 -1.89844,-6.86524 -0.032,-2.3506 1.22081,-6.12152 1.69531,-6.8457 0.73639,-1.12389 3.81183,-1.9774 5.69141,-3.01563 2.84876,-1.57357 5.81223,-2.98087 8.46289,-4.86914 3.02027,-2.15158 5.49539,-4.98857 8.39453,-7.30078 2.89315,-2.30743 8.01119,-6.09862 8.96484,-6.54688 0.95366,-0.44826 3.43731,-0.44582 5.16211,-0.39843 3.63225,0.0998 6.72562,0.33564 10.39454,0.6875 1.49587,0.14345 2.64093,0.46038 4.4414,0.76562 1.81087,0.307 5.33166,1.58317 5.35156,1.31836 0.0311,-0.41311 -3.70769,-2.16657 -5.74218,-2.79101 -5.65517,-1.73572 -17.56641,-2.53125 -17.56641,-2.53125 l -1.18555,-0.66797 c 0,0 -0.73898,-0.72538 -2.46875,-1.75586 -1.72975,-1.03048 -6.46027,-3.85881 -10.08593,-4.48633 -3.33467,-0.57715 -6.8863,-0.21419 -10.125,0.76758 -2.80596,0.85058 -7.44792,2.5564 -8.40625,2.19531 -0.52895,-0.19928 -1.08984,-0.62713 -1.47264,-1.10739 -0.30704,-0.38521 -0.55346,-0.85937 -0.60156,-1.34961 -0.0595,-0.60665 0.10622,-1.2526 0.40625,-1.78321 0.78078,-1.38083 1.84598,-1.89542 3.42969,-3.29687 1.5837,-1.40146 0.89929,-5.18887 0.63867,-6.39453 -0.26061,-1.20566 3.64235,-3.03097 4.66406,-3.91016 1.12119,-0.96478 2.43446,-4.54185 0.85742,-4.66797 -0.55957,-0.0448 -3.62004,1.65882 -3.06445,1.11524 0.55558,-0.54358 5.71386,-6.33096 7.69922,-9.83789 1.96741,-3.4753 2.21131,-4.89476 1.99804,-7.19336 -0.0801,-0.86292 -2.31993,-4.83997 -3.40429,-3.09375 -2.11848,3.41154 -4.88521,6.97516 -5.07422,6.24609 -0.18901,-0.72906 0.478,-2.70792 1.51758,-4.94922 1.41072,-3.04149 6.64745,-9.19039 6.59375,-10.48242 -0.0436,-1.04998 -3.55284,-2.98659 -7.32227,-1.17578 -4.96038,2.38294 -9.41797,13.55859 -9.41797,13.55859 0,0 0.431,-3.2665 0.93946,-4.82422 3.00518,-9.20675 5.78738,-9.48951 4.9707,-10.76757 -0.42877,-0.67101004 -4.02308,-1.95663004 -8.28711,0.77148 -3.49204,2.23419 -5.6543,11.07813 -5.6543,11.07813 0,0 -0.48299,-2.17357 -0.36914,-3.26172 0.6249,-5.97291 2.41558,-7.5754 2.17969,-9.06641004 -0.0723,-0.45681 -0.46914,-0.66272 -1.04297,-0.68555 z" /></g></svg>
