<?xml version="1.0" encoding="UTF-8" standalone="no"?>
<!-- Created with Inkscape (http://www.inkscape.org/) -->

<svg
   version="1.1"
   id="svg1"
   width="512"
   height="105.85175"
   viewBox="0 0 512 105.85175"
   xml:space="preserve"
   xmlns="http://www.w3.org/2000/svg"
   xmlns:svg="http://www.w3.org/2000/svg"><defs
     id="defs1" /><g
     id="layer1"
     style="display:inline"
     transform="translate(-4.3167115e-6,-75.074127)"><g
       id="g19"><g
         id="g17"
         style="display:inline;stroke-width:2.09832"
         transform="matrix(0.45502237,0,0,0.49914287,395.51426,64.109613)"><path
           id="rect13"
           style="fill:#cccccc;fill-opacity:1;stroke-width:1.04916;stroke-linecap:round;stroke-linejoin:round;stroke-miterlimit:0"
           d="m 125.56819,82.495808 c -0.59027,-0.49216 -1.73838,-0.64296 -2.57409,-0.33911 l -18.37275,6.68001 c -0.8357,0.30385 -1.03467,0.94441 -0.44441,1.43659 l 22.10026,18.426872 c 0.59028,0.49218 1.73837,0.64297 2.57409,0.33913 l 18.37275,-6.68002 c 0.8357,-0.30385 1.03469,-0.94442 0.4444,-1.43658 z m -2.25067,2.11306 a 1.0462994,0.58930574 2.9331734 0 1 0.20383,0.28979 l 2.33715,10.72267 16.99262,5.394212 a 1.0462994,0.58930574 2.9331734 0 1 0.52444,0.35939 1.0462994,0.58930574 2.9331734 0 1 -0.0583,0.44856 1.0462994,0.58930574 2.9331734 0 1 -1.40307,0.21394 l -17.49161,-5.552672 a 1.0464041,0.58936465 2.9331734 0 1 -0.57013,-0.47536 l -2.40588,-11.0376 a 1.0462994,0.58930574 2.9331734 0 1 0.90834,-0.62645 1.0462994,0.58930574 2.9331734 0 1 0.96267,0.26352 z" /><path
           id="path3"
           style="fill:#ffffff;stroke:none;stroke-width:1.04916;stroke-linecap:round;stroke-linejoin:round;stroke-miterlimit:0"
           d="m 167.93663,22.6328 c 1.45937,-0.468172 4.67894,0.09555 5.8332,1.04649 4.8227,3.97328 5.22586,10.438008 5.22586,10.438008 0,0 0.24308,-3.332994 0.0596,-4.984142 -0.24917,-2.241656 -2.52623,-5.860389 -1.56313,-6.582251 1.30855,-0.9808 4.52891,-0.714022 6.30287,0.705201 2.45093,1.960831 3.05857,8.904454 3.05857,8.904454 0,0 1.98543,-9.09775 5.38155,-8.723758 2.59823,0.286128 2.56663,7.410928 2.56663,7.410928 0,0 0.98513,-1.134858 1.44618,-1.448891 1.93713,-1.319467 2.95106,-1.093664 4.0768,-0.325189 1.35369,0.924094 1.17885,4.966597 1.42135,4.706665 0.24249,-0.259928 3.55558,-1.197765 4.85364,-0.228794 1.17712,0.878673 1.05374,4.278544 1.05374,4.278544 0,0 2.5785,-1.037779 3.48714,-0.305824 2.39093,1.926023 0.64427,5.174727 0.64427,5.174727 0,0 2.73567,-0.873268 3.95309,0.652171 1.21169,1.518262 -0.96242,4.199653 -0.96242,4.199653 0,0 0.98467,-0.248749 1.47541,-0.180378 2.42014,0.337053 3.27192,1.986542 2.78839,3.277935 -0.35159,0.938961 -2.47527,1.970638 -2.47527,1.970638 0,0 1.24178,0.082 1.73434,0.414929 0.8842,0.597633 1.71846,1.551932 1.85314,2.610636 0.12159,0.95593 -1.02998,2.701968 -1.02998,2.701968 0,0 1.33296,1.560605 1.26573,2.488722 -0.0733,1.012141 -1.75673,2.487114 -1.75673,2.487114 0,0 0.55072,0.417849 0.63836,0.728046 0.38371,1.359663 0.24878,3.142781 -0.71473,4.17601 -0.45553,0.488504 -2.80548,0.126072 -1.94711,0.475363 0.85836,0.349282 1.19088,1.822511 0.7317,3.130956 -0.47549,1.354991 -2.57047,2.237767 -4.07504,1.657217 -1.05456,-0.406926 -0.7401,0.04961 -1.16795,0.956971 -0.47934,1.016543 -1.88622,0.476284 -1.2654,0.904676 0.22608,0.15602 0.63243,0.287351 0.93186,0.486113 3.99585,0.612721 9.37127,1.370883 11.36302,1.279201 3.23711,-0.149007 4.75992,0.244285 12.50643,-0.585146 7.7465,-0.829441 10.73258,-2.34929 11.89257,-1.523737 0.23955,0.170482 0.039,0.881696 0.039,0.881696 0,0 2.06428,-0.04004 2.83512,0.535034 0.84558,0.630773 1.52536,1.714342 1.44943,2.812802 -0.076,1.09847 -0.24055,1.40106 -0.24055,1.40106 0,0 1.84093,1.40704 2.60853,2.26579 0.63523,0.71068 1.28817,1.17981 1.62189,2.35566 0.31005,1.09411 0.1827,1.80902 -0.4415,2.65229 -0.62422,0.84326 -2.64312,0.83533 -2.42237,1.14094 0.24695,0.34186 1.13598,1.219 2.03948,3.67866 0.86404,2.35231 0.21836,3.92123 -0.63044,4.66834 -0.98052,0.86302 -1.45258,0.9871 -2.2912,1.06126 -0.72067,0.0637 -2.0987,-0.55184 -2.0987,-0.55184 0,0 -0.77638,2.891302 -1.99561,3.231362 -2.62666,0.73253 -10.19558,-4.388952 -10.19558,-4.388952 l -7.59408,-4.82589 c 0.003,0.0439 0.0211,0.0893 0.0225,0.13261 0.0227,0.74366 -1.60331,1.55198 -1.60331,1.55198 0,0 1.95486,-0.45202 2.62859,0.10907 0.55913,0.46571 0.71578,1.24973 0.48255,2.12902 -0.15519,0.58501 -1.09475,0.82456 -1.72552,0.92957 0.13265,-0.0164 -0.004,0.007 0.99872,-0.14369 1.58303,-0.24064 1.63394,1.52052 1.18019,2.09594 -0.35098,0.44512 -1.56516,0.52409 -2.20615,0.54899 0.18821,-0.003 0.36699,-0.012 0.68311,0.025 0.8732,0.10254 1.9274,2.241092 0.10233,3.722112 -0.68255,0.55389 -3.24679,0.17252 -2.58997,0.49144 0.65684,0.31892 1.2748,1.54179 -0.31608,3.13679 -1.76536,1.76991 -2.72608,0.89512 -3.27169,0.81585 -0.11336,-0.0164 0.36853,1.56543 0.0907,2.2702 -0.42467,1.07732 -1.29902,2.17909 -2.47074,2.44181 -1.13422,0.25423 -3.48477,-0.12759 -3.48477,-0.12759 0,0 0.96601,0.57645 1.1642,1.06356 0.41913,1.03018 0.39953,2.38938 -0.1918,3.33132 -0.73792,1.17552 -2.25586,1.9021 -3.63867,2.02118 -1.06386,0.0916 -3.12371,-1.67569 -3.02591,-1.0537 0.0977,0.62202 -0.11316,2.53086 -0.65436,3.83469 -0.54119,1.30387 -2.15575,2.61107 -3.69304,2.85851 -2.53207,0.40755 -2.74349,-2.21934 -2.74349,-2.21934 0,0 -1.4461,2.25555 -2.26024,3.3174 -1.97354,2.57407 -3.52664,3.39851 -4.49689,3.54854 -1.04865,0.16218 -1.10278,-3.26599 -1.10278,-3.26599 0,0 -3.00189,3.1594 -4.58222,4.65769 -1.49502,1.41745 -3.81822,2.40888 -4.61646,1.76596 -0.58754,-0.47321 0.39508,-2.22827 0.39508,-2.22827 0,0 -0.0644,-0.63201 -1.35668,0.66672 -1.35229,1.35907 -4.72146,4.1858 -7.57134,5.41317 -3.1018,1.33587 -9.30467,-0.29835 -7.24557,-1.67877 0.6628,-0.44436 5.67745,-2.21165 7.4991,-4.48435 1.87362,-2.33753 2.45665,-5.56007 2.82348,-8.53327 0.35206,-2.85355 -0.80644,-5.73056 -0.63741,-8.60076 0.0849,-1.44107 0.55735,-2.60332 0.82534,-4.25179 0.26797,-1.64846 0.53128,-4.29394 -0.005,-6.33645 -0.53166,-2.022562 -2.50247,-4.957042 -3.08146,-5.464962 -0.89857,-0.78824 -3.73784,-0.78839 -5.59597,-1.23131 -2.81626,-0.6713 -5.69128,-1.17278 -8.41256,-2.16096 -3.10074,-1.12599 -5.89722,-2.96917 -8.93231,-4.26165 -3.02886,-1.28981 -8.31779,-3.32233 -9.24189,-3.47976 -0.92409,-0.15742 -3.05252,0.43541 -4.51976,0.88627 -3.08984,0.94948 -5.6854,1.8874 -8.74673,3.06168 -1.24814,0.47876 -2.15431,1.02278 -3.62508,1.71268 -1.47928,0.69387 -4.19379,2.62522 -4.27382,2.40296 -0.12517,-0.34665 2.66294,-2.73907 4.2584,-3.75824 4.43479,-2.83294 14.45596,-6.34795 14.45596,-6.34795 l 0.85738,-0.85457 c 0,0 0.46094,-0.79756 1.69861,-2.09231 1.23765,-1.29476 4.61996,-4.844358 7.57864,-6.244637 2.72123,-1.28788 5.85203,-1.821499 8.86178,-1.750241 2.60759,0.06168 6.99244,0.419889 7.72803,-0.117574 0.40602,-0.296639 0.78506,-0.796802 0.99897,-1.299531 0.17157,-0.403234 0.27003,-0.868298 0.19466,-1.299972 -0.0933,-0.534176 -0.38897,-1.04848 -0.77238,-1.431954 -0.99772,-0.997947 -2.0332,-1.185701 -3.72411,-2.010347 -1.69088,-0.82466 -2.00504,-4.234036 -2.0684,-5.329523 -0.0633,-1.095482 -3.84316,-1.731838 -4.92808,-2.242471 -1.19057,-0.560343 -3.16711,-3.314267 -1.84526,-3.797474 0.46902,-0.171509 3.49767,0.560928 2.89212,0.227113 -0.60553,-0.333815 -6.40374,-4.067901 -8.93972,-6.601845 -2.51308,-2.511103 -3.05977,-3.669859 -3.42367,-5.690958 -0.13658,-0.758751 0.83747,-4.700644 2.18233,-3.461685 2.6274,2.420514 5.84667,4.817207 5.83528,4.147286 -0.0114,-0.669909 -1.05383,-2.207551 -2.47806,-3.881543 -1.93268,-2.271644 -7.88414,-6.296971 -8.14541,-7.417277 -0.21236,-0.910423 2.33516,-3.405161 5.99703,-2.749476 4.81884,0.862851 11.29802,9.382451 11.29802,9.382451 0,0 -1.14639,-2.69755 -1.95273,-3.911899 -4.76589,-7.177301 -7.21805,-6.757942 -6.82197,-8.04775 0.20795,-0.677175 2.98322,-2.634118 7.28724,-1.309759 3.52481,1.084582 7.48182,8.15137 7.48182,8.15137 0,0 -0.10296,-1.978075 -0.45936,-2.883767 -1.9563,-4.97138 -3.87245,-5.919133 -4.02488,-7.253339 -0.0467,-0.408776 0.24454,-0.679674 0.73099,-0.835728 z" /></g><g
         id="g16"
         style="display:inline;stroke-width:2.09832"
         transform="matrix(0.45502237,0,0,0.49914287,395.51426,64.109613)"><path
           id="path10"
           style="fill:#cccccc;stroke-width:1.04916;stroke-linecap:round;stroke-linejoin:round;stroke-miterlimit:0"
           d="m 17.700921,108.41059 c -9.806041,0 -17.7009300696932,7.89491 -17.7009300696932,17.70092 v 17.6691 37.80913 34.83583 8.80386 L 0.0363491,225.27043 c -0.0892216,-1.27711 0.03908043,-2.63902 0.42962359,-4.06211 L 18.426044,155.76228 c 1.950173,-7.10586 9.452635,-12.82504 16.821222,-12.82504 H 135.41538 c -0.64756,-6.95349 -6.09961,-12.46691 -13.0228,-13.21603 h -9.86996 -27.257208 c 0,0 -1.030866,0.0454 -2.555017,-0.0932 -4.034884,-0.36683 -11.809054,-2.16366 -15.18456,-10.56096 -3.899966,-9.70209 -13.644012,-10.61118 -16.716656,-10.65651 H 49.786267 31.43295 Z m -9.9881715,125.37723 0.2227683,0.24549 h 2.3095092 c -0.8912978,0 -1.7348061,-0.0858 -2.5322775,-0.24549 z m 112.1566405,0.21139 c -0.23869,0.0128 -0.47743,0.0341 -0.71603,0.0341 h 0.48644 c 0.0779,-0.007 0.15223,-0.0253 0.22959,-0.0341 z" /><path
           id="rect2"
           style="fill:#ffffff;fill-opacity:1;stroke-width:1.04916;stroke-linecap:round;stroke-linejoin:round;stroke-miterlimit:0"
           d="M 35.106162,143.29934 H 143.57921 c 7.33922,0 11.68394,5.69776 9.74154,12.77526 l -17.88937,65.18343 c -1.94239,7.07749 -9.4146,12.77528 -16.75379,12.77528 H 10.20453 c -7.3391998,0 -11.6839202,-5.69779 -9.74152444,-12.77528 L 18.352376,156.0746 c 1.942399,-7.0775 9.414586,-12.77526 16.753786,-12.77526 z" /></g><path
         d="M 29.299563,161.81872 V 92.265259 q -12.274139,0.39594 -18.081259,5.54316 -5.6751398,5.015241 -7.3908797,16.761461 H 4.4059753e-6 L 0.39594439,88.041899 H 79.583942 l 0.26396,26.527981 h -3.82742 q -1.71574,-11.74622 -7.52286,-16.761461 -5.67514,-5.14722 -17.817299,-5.54316 v 69.553461 q 0,7.52286 2.11168,9.50256 2.24366,1.9797 10.822359,2.6396 v 3.2995 H 16.497504 v -3.2995 q 8.44672,-0.6599 10.5584,-2.6396 2.243659,-2.11168 2.243659,-9.50256 z"
         id="text18"
         style="font-weight:bold;font-size:131.98px;line-height:0.9;font-family:FreeSerif;-inkscape-font-specification:'FreeSerif Bold';fill:#ffffff;stroke-width:0;stroke-linecap:round;stroke-linejoin:round;stroke-miterlimit:0"
         transform="scale(0.97974031,1.0206786)"
         aria-label="T" /><path
         d="m 101.93635,150.62832 q -2.047311,0 -3.649555,-1.3352 -1.513232,-1.33521 -2.492381,-2.5814 -0.97915,-1.3352 -1.691259,-1.3352 -2.22534,0 -3.827585,2.49238 -1.602245,2.49238 -1.602245,5.96391 v 16.82357 q 0,4.18364 1.157177,5.51885 1.246191,1.24619 5.340816,1.51323 v 2.13632 H 71.582714 v -2.13632 q 2.937449,-0.53408 3.827585,-1.51323 0.890136,-1.06817 0.890136,-3.82759 v -26.17 q 0,-2.67041 -0.97915,-3.73857 -0.890136,-1.15718 -3.738571,-1.51323 v -2.13633 h 16.734557 v 7.29912 q 3.115476,-4.45068 5.874898,-6.40898 2.848435,-1.9583 6.141941,-1.9583 3.11547,0 5.16279,1.9583 2.04731,1.9583 2.04731,4.98476 0,2.58139 -1.60225,4.27265 -1.51323,1.69126 -4.00561,1.69126 z m 37.11868,30.35364 v -5.78588 q -3.9166,3.38251 -6.67602,4.6287 -2.75942,1.24619 -6.23095,1.24619 -5.51885,0 -8.72334,-3.2935 -3.11547,-3.2935 -3.11547,-9.1684 v -22.43143 q 0,-2.75942 -0.97915,-3.73857 -0.89014,-0.97915 -3.73857,-1.51323 v -2.13633 h 17.09061 v 30.17561 q 0,3.38252 1.06816,4.89575 1.15718,1.42422 3.9166,1.42422 3.38252,0 7.29911,-3.9166 v -25.19085 q 0,-2.84843 -1.15717,-3.9166 -1.06817,-1.06816 -4.36167,-1.3352 v -2.13633 h 17.89174 v 32.0449 q 0,2.84843 1.15717,3.9166 1.15718,1.06816 4.09463,1.24619 v 2.04731 l -5.78589,0.6231 q -7.38813,0.80112 -11.74979,2.31435 z m 36.94055,-61.33037 v 52.69605 q 0,5.2518 4.36166,5.34082 v 2.13632 h -21.45228 v -2.13632 q 4.71772,-0.44507 4.71772,-5.34082 V 126.9507 q 0,-4.71772 -4.71772,-5.16279 v -2.13632 z m 25.19089,19.13792 v 33.82517 q 0,2.49238 0.97915,3.64956 0.97915,1.06816 3.38252,1.42422 v 2.13632 h -21.45228 v -2.13632 q 3.02646,-0.71211 3.82759,-1.60225 0.89013,-0.97915 0.89013,-3.73857 v -26.17 q 0,-2.75942 -0.89013,-3.64956 -0.89014,-0.97915 -3.82759,-1.60224 v -2.13633 z m -11.1267,-18.42581 q 2.04731,-2.04732 4.89575,-2.04732 2.84844,0 4.80673,2.04732 2.04732,2.04731 2.04732,4.89574 0,2.93745 -2.04732,4.89575 -1.95829,1.9583 -4.89574,1.9583 -2.93745,0 -4.89575,-1.9583 -1.9583,-1.9583 -1.9583,-4.98476 0,-2.84843 2.04731,-4.80673 z m 29.8195,23.49959 q 0,0.44507 1.3352,2.40336 1.3352,1.86929 1.3352,3.38252 0,2.31436 -1.69125,3.73857 -1.69126,1.42422 -4.36167,1.42422 -2.75942,0 -4.27265,-1.51323 -1.51324,-1.60225 -1.51324,-4.36167 0,-4.98476 4.62871,-8.10023 4.62871,-3.11548 12.19487,-3.11548 8.10023,0 12.81795,3.2935 4.80674,3.29351 4.80674,8.90136 v 23.23255 q 0,2.22534 1.86928,2.22534 0.6231,0 0.97915,-0.35605 l 0.89014,-0.89014 1.3352,1.86929 q -4.71772,5.07377 -9.96952,5.07377 -3.2935,0 -4.98476,-1.42421 -1.60225,-1.42422 -2.31435,-4.80674 -6.85405,6.23095 -14.06415,6.23095 -4.27266,0 -7.12109,-2.6704 -2.75942,-2.67041 -2.75942,-6.76504 0,-2.75942 1.42421,-5.07377 1.51323,-2.40337 3.47153,-3.9166 1.9583,-1.51323 5.34082,-3.02646 3.47153,-1.51324 5.8749,-2.31436 2.40337,-0.80112 6.31996,-1.9583 0.97915,-0.26704 1.51324,-0.44507 v -6.49799 q 0,-4.09462 -1.78028,-5.96391 -1.78027,-1.86929 -5.69687,-1.86929 -2.31435,0 -4.00561,0.97915 -1.60224,0.89014 -1.60224,2.31436 z m 12.99598,27.06013 v -12.90697 q -10.85966,2.84844 -10.85966,10.77065 0,2.6704 1.24619,4.36166 1.24619,1.60225 3.29351,1.60225 3.02646,0 6.31996,-3.82759 z m 44.77385,-27.23816 q -2.49238,0 -5.07378,2.13633 -2.58139,2.04731 -2.58139,3.02646 v 23.76663 q 0,2.49238 0.89013,3.64956 0.97915,1.06816 3.47153,1.42422 v 2.13632 h -21.45227 v -2.13632 q 3.02646,-0.6231 3.82758,-1.60225 0.89014,-0.97915 0.89014,-3.73857 v -26.17 q 0,-2.75942 -0.89014,-3.73857 -0.89014,-1.06816 -3.82758,-1.51323 v -2.13633 h 17.00159 v 6.67602 q 4.89575,-7.74418 12.72895,-7.74418 5.51884,0 8.72333,3.47153 3.29351,3.38252 3.29351,9.07939 v 22.34241 q 0,2.84844 0.89013,3.9166 0.89014,0.97915 3.47153,1.15718 v 2.13632 h -20.91819 v -2.13632 q 2.22534,-0.26704 3.20449,-1.42422 0.97915,-1.15718 0.97915,-3.64956 v -21.54129 q 0,-7.38813 -4.62871,-7.38813 z m 58.74902,26.43704 1.60225,1.60225 q -3.9166,4.98476 -7.92221,7.2101 -3.9166,2.13632 -9.07939,2.13632 -8.27827,0 -13.7081,-5.96391 -5.34081,-5.96391 -5.34081,-15.13231 0,-9.61347 5.96391,-15.93344 5.96391,-6.31996 15.0433,-6.31996 5.8749,0 9.79149,2.84843 4.00562,2.75943 4.00562,6.94307 0,2.58139 -1.60225,4.09462 -1.60224,1.51323 -4.45068,1.51323 -4.89575,0 -4.98476,-6.40898 0,-3.73857 -0.44507,-4.53969 -0.89013,-1.69126 -3.2935,-1.69126 -3.47153,0 -5.51884,4.00561 -1.9583,3.9166 -1.9583,10.77065 0,9.07939 3.38251,14.50922 3.47153,5.34081 9.25742,5.34081 2.75942,0 4.71772,-1.06816 2.04731,-1.15718 4.53969,-3.9166 z m 16.20042,-12.10585 q 0.089,2.40337 0.35605,4.36167 0.26704,1.86928 0.89014,4.36166 0.71211,2.40337 1.78027,4.00562 1.15718,1.60224 3.02646,2.75942 1.9583,1.15717 4.53969,1.15717 2.84844,0 5.16279,-1.3352 2.31436,-1.3352 4.98477,-4.62871 l 2.13632,1.24619 q -4.36166,6.23096 -8.18925,8.72334 -3.73857,2.40336 -9.1684,2.40336 -8.27827,0 -13.35204,-5.87489 -4.98476,-5.96392 -4.98476,-15.6664 0,-9.79149 5.07377,-15.75541 5.16279,-6.05292 13.53007,-6.05292 15.22133,0 16.64554,20.2951 z m 11.48275,-4.62871 q -0.089,-2.84843 -0.17803,-4.36166 -0.089,-1.51323 -0.44506,-3.38252 -0.35606,-1.9583 -0.97915,-2.84844 -0.53409,-0.97915 -1.60225,-1.60224 -0.97915,-0.71211 -2.49238,-0.71211 -3.2935,0 -4.71772,3.11548 -1.33521,3.11547 -1.51323,11.1267 h 11.92782 z"
         id="text19"
         style="font-weight:bold;font-size:89.0136px;line-height:0.9;font-family:FreeSerif;-inkscape-font-specification:'FreeSerif Bold';fill:#ffffff;stroke-width:0;stroke-linecap:round;stroke-linejoin:round;stroke-miterlimit:0"
         transform="scale(1.0008031,0.99919758)"
         aria-label="ruliance" /></g></g></svg>
